<svg width="206" height="29" viewBox="0 0 206 29" fill="none" xmlns="http://www.w3.org/2000/svg"><circle cx="78.75" cy="14.75" r="6.75" fill="#CFDE00"/><circle cx="165.75" cy="14.75" r="6.75" fill="#0E8FE3"/><path d="M70.102 7.517L63.04 23.759h-5.009L51 7.517h5.009l4.635 11.049 4.792-11.049h4.666zM79.591 24c-1.763 0-3.35-.352-4.76-1.057-1.39-.724-2.478-1.72-3.266-2.988-.788-1.268-1.183-2.707-1.183-4.317 0-1.61.394-3.05 1.183-4.317.788-1.268 1.877-2.254 3.266-2.959 1.41-.724 2.997-1.087 4.76-1.087s3.34.363 4.73 1.087c1.389.705 2.478 1.69 3.266 2.959.788 1.268 1.182 2.707 1.182 4.317 0 1.61-.394 3.049-1.182 4.317-.788 1.268-1.877 2.264-3.267 2.988-1.39.705-2.966 1.057-4.729 1.057zm0-3.864c1.245 0 2.261-.403 3.05-1.208.808-.825 1.212-1.922 1.212-3.29 0-1.369-.404-2.456-1.213-3.26-.788-.826-1.804-1.238-3.049-1.238-1.244 0-2.27.412-3.08 1.237-.809.805-1.213 1.892-1.213 3.26 0 1.37.404 2.466 1.213 3.291.81.805 1.836 1.208 3.08 1.208zM92.013 7.517h4.853v16.242h-4.853V7.517zm2.427-2.264c-.892 0-1.618-.252-2.178-.755-.56-.503-.84-1.127-.84-1.872 0-.744.28-1.368.84-1.871C92.822.252 93.548 0 94.44 0c.892 0 1.617.242 2.177.725s.84 1.086.84 1.81c0 .786-.28 1.44-.84 1.963-.56.503-1.285.755-2.177.755zM109.459 24c-1.783 0-3.391-.352-4.822-1.057-1.41-.724-2.52-1.72-3.329-2.988-.788-1.268-1.182-2.707-1.182-4.317 0-1.61.394-3.05 1.182-4.317.809-1.268 1.919-2.254 3.329-2.959 1.431-.724 3.039-1.087 4.822-1.087 1.763 0 3.298.363 4.605 1.087 1.327.705 2.292 1.721 2.893 3.05l-3.764 1.962c-.871-1.49-2.126-2.234-3.765-2.234-1.265 0-2.312.402-3.142 1.207-.829.805-1.244 1.902-1.244 3.29 0 1.39.415 2.486 1.244 3.291.83.805 1.877 1.208 3.142 1.208 1.66 0 2.914-.745 3.765-2.234l3.764 1.992c-.601 1.288-1.566 2.295-2.893 3.02-1.307.724-2.842 1.086-4.605 1.086zm26.475-8.302c0 .06-.031.483-.093 1.268h-12.662a3.819 3.819 0 001.618 2.385c.85.584 1.908.875 3.173.875.871 0 1.639-.12 2.302-.362a5.798 5.798 0 001.898-1.207l2.582 2.717c-1.576 1.75-3.878 2.626-6.906 2.626-1.888 0-3.557-.352-5.009-1.057-1.452-.724-2.572-1.72-3.36-2.988-.788-1.268-1.182-2.707-1.182-4.317 0-1.59.383-3.02 1.151-4.287a8.064 8.064 0 013.204-2.989c1.369-.724 2.893-1.087 4.573-1.087 1.639 0 3.122.343 4.449 1.027a7.483 7.483 0 013.111 2.958c.768 1.268 1.151 2.748 1.151 4.438zm-8.68-4.86c-1.099 0-2.022.302-2.768.905-.747.604-1.203 1.43-1.369 2.476h8.244c-.166-1.026-.622-1.842-1.369-2.445-.746-.624-1.659-.936-2.738-.936zm20 13.162c-1.783 0-3.391-.352-4.822-1.057-1.41-.724-2.52-1.72-3.329-2.988-.788-1.268-1.182-2.707-1.182-4.317 0-1.61.394-3.05 1.182-4.317.809-1.268 1.919-2.254 3.329-2.959 1.431-.724 3.039-1.087 4.822-1.087 1.763 0 3.298.363 4.605 1.087 1.327.705 2.292 1.721 2.893 3.05l-3.764 1.962c-.871-1.49-2.126-2.234-3.765-2.234-1.265 0-2.312.402-3.142 1.207-.829.805-1.244 1.902-1.244 3.29 0 1.39.415 2.486 1.244 3.291.83.805 1.877 1.208 3.142 1.208 1.66 0 2.914-.745 3.765-2.234l3.764 1.992c-.601 1.288-1.566 2.295-2.893 3.02-1.307.724-2.842 1.086-4.605 1.086zm18.044 0c-1.763 0-3.349-.352-4.76-1.057-1.389-.724-2.478-1.72-3.266-2.988-.788-1.268-1.183-2.707-1.183-4.317 0-1.61.395-3.05 1.183-4.317.788-1.268 1.877-2.254 3.266-2.959 1.411-.724 2.997-1.087 4.76-1.087s3.34.363 4.729 1.087c1.39.705 2.479 1.69 3.267 2.959.788 1.268 1.182 2.707 1.182 4.317 0 1.61-.394 3.049-1.182 4.317-.788 1.268-1.877 2.264-3.267 2.988-1.389.705-2.966 1.057-4.729 1.057zm0-3.864c1.245 0 2.261-.403 3.049-1.208.809-.825 1.214-1.922 1.214-3.29 0-1.369-.405-2.456-1.214-3.26-.788-.826-1.804-1.238-3.049-1.238-1.244 0-2.271.412-3.08 1.237-.809.805-1.213 1.892-1.213 3.26 0 1.37.404 2.466 1.213 3.291.809.805 1.836 1.208 3.08 1.208zm33.858-12.861c2.094 0 3.754.604 4.977 1.812 1.245 1.187 1.867 2.978 1.867 5.373v9.299h-4.853v-8.574c0-1.288-.28-2.244-.84-2.868-.54-.644-1.317-.966-2.334-.966-1.14 0-2.043.362-2.706 1.087-.664.704-.996 1.76-.996 3.17v8.15h-4.853v-8.573c0-2.556-1.058-3.834-3.173-3.834-1.12 0-2.012.362-2.676 1.087-.664.704-.996 1.76-.996 3.17v8.15h-4.853V7.518h4.636V9.39a6.15 6.15 0 012.271-1.57c.912-.362 1.908-.544 2.986-.544 1.183 0 2.251.232 3.205.695a5.517 5.517 0 012.302 1.962 6.871 6.871 0 012.582-1.962c1.058-.463 2.209-.695 3.454-.695z" fill="#181C2B"/><path fill="#CFDE00" d="M0 15.168l5.173-5.743 14.844 13.37-5.174 5.743z"/><path fill="#0E8FE3" d="M28.186 2.524l5.736 5.182-18.945 20.97-5.736-5.182z"/></svg>