<svg width="206" height="29" viewBox="0 0 206 29" fill="none" xmlns="http://www.w3.org/2000/svg">
<circle cx="78.7504" cy="14.7504" r="6.75043" fill="#CFDE00"/>
<circle cx="165.75" cy="14.7504" r="6.75043" fill="#0E8FE3"/>
<path d="M70.1021 7.51698L63.04 23.7585H58.0311L51 7.51698H56.0089L60.6444 18.566L65.4355 7.51698H70.1021Z" fill="#181C2B"/>
<path d="M79.5912 24C77.8283 24 76.2416 23.6478 74.8313 22.9434C73.4416 22.2189 72.3527 21.2226 71.5646 19.9547C70.7765 18.6868 70.3824 17.2478 70.3824 15.6377C70.3824 14.0277 70.7765 12.5887 71.5646 11.3208C72.3527 10.0528 73.4416 9.06667 74.8313 8.36226C76.2416 7.63774 77.8283 7.27547 79.5912 7.27547C81.3542 7.27547 82.9305 7.63774 84.3201 8.36226C85.7097 9.06667 86.7986 10.0528 87.5868 11.3208C88.3749 12.5887 88.769 14.0277 88.769 15.6377C88.769 17.2478 88.3749 18.6868 87.5868 19.9547C86.7986 21.2226 85.7097 22.2189 84.3201 22.9434C82.9305 23.6478 81.3542 24 79.5912 24ZM79.5912 20.1358C80.8357 20.1358 81.852 19.7333 82.6401 18.9283C83.449 18.1031 83.8534 17.0063 83.8534 15.6377C83.8534 14.2692 83.449 13.1824 82.6401 12.3774C81.852 11.5522 80.8357 11.1396 79.5912 11.1396C78.3468 11.1396 77.3201 11.5522 76.5112 12.3774C75.7024 13.1824 75.2979 14.2692 75.2979 15.6377C75.2979 17.0063 75.7024 18.1031 76.5112 18.9283C77.3201 19.7333 78.3468 20.1358 79.5912 20.1358Z" fill="#181C2B"/>
<path d="M92.013 7.51698H96.8663V23.7585H92.013V7.51698ZM94.4397 5.25283C93.5478 5.25283 92.8219 5.00126 92.2619 4.49811C91.7019 3.99497 91.4219 3.37107 91.4219 2.62642C91.4219 1.88176 91.7019 1.25786 92.2619 0.754718C92.8219 0.251573 93.5478 0 94.4397 0C95.3315 0 96.0574 0.24151 96.6174 0.72453C97.1774 1.20755 97.4574 1.81132 97.4574 2.53585C97.4574 3.32076 97.1774 3.97484 96.6174 4.49811C96.0574 5.00126 95.3315 5.25283 94.4397 5.25283Z" fill="#181C2B"/>
<path d="M109.459 24C107.676 24 106.068 23.6478 104.637 22.9434C103.227 22.2189 102.117 21.2226 101.308 19.9547C100.52 18.6868 100.126 17.2478 100.126 15.6377C100.126 14.0277 100.52 12.5887 101.308 11.3208C102.117 10.0528 103.227 9.06667 104.637 8.36226C106.068 7.63774 107.676 7.27547 109.459 7.27547C111.222 7.27547 112.757 7.63774 114.064 8.36226C115.391 9.06667 116.356 10.083 116.957 11.4113L113.193 13.3736C112.322 11.8843 111.067 11.1396 109.428 11.1396C108.163 11.1396 107.116 11.5421 106.286 12.3472C105.457 13.1522 105.042 14.2491 105.042 15.6377C105.042 17.0264 105.457 18.1233 106.286 18.9283C107.116 19.7333 108.163 20.1358 109.428 20.1358C111.088 20.1358 112.342 19.3912 113.193 17.9019L116.957 19.8943C116.356 21.1824 115.391 22.1887 114.064 22.9132C112.757 23.6377 111.222 24 109.459 24Z" fill="#181C2B"/>
<path d="M135.934 15.6981C135.934 15.7585 135.903 16.1811 135.841 16.966H123.179C123.407 17.9723 123.946 18.7673 124.797 19.3509C125.647 19.9346 126.705 20.2264 127.97 20.2264C128.841 20.2264 129.609 20.1057 130.272 19.8641C130.957 19.6025 131.589 19.2 132.17 18.6566L134.752 21.3736C133.176 23.1245 130.874 24 127.846 24C125.958 24 124.289 23.6478 122.837 22.9434C121.385 22.2189 120.265 21.2226 119.477 19.9547C118.689 18.6868 118.295 17.2478 118.295 15.6377C118.295 14.0478 118.678 12.6189 119.446 11.3509C120.234 10.0629 121.302 9.06667 122.65 8.36226C124.019 7.63774 125.543 7.27547 127.223 7.27547C128.862 7.27547 130.345 7.61761 131.672 8.30189C133 8.98616 134.037 9.97233 134.783 11.2604C135.551 12.5283 135.934 14.0075 135.934 15.6981ZM127.254 10.8377C126.155 10.8377 125.232 11.1396 124.486 11.7434C123.739 12.3472 123.283 13.1723 123.117 14.2189H131.361C131.195 13.1925 130.739 12.3774 129.992 11.7736C129.246 11.1497 128.333 10.8377 127.254 10.8377Z" fill="#181C2B"/>
<path d="M147.254 24C145.471 24 143.863 23.6478 142.432 22.9434C141.022 22.2189 139.912 21.2226 139.103 19.9547C138.315 18.6868 137.921 17.2478 137.921 15.6377C137.921 14.0277 138.315 12.5887 139.103 11.3208C139.912 10.0528 141.022 9.06667 142.432 8.36226C143.863 7.63774 145.471 7.27547 147.254 7.27547C149.017 7.27547 150.552 7.63774 151.859 8.36226C153.186 9.06667 154.151 10.083 154.752 11.4113L150.988 13.3736C150.117 11.8843 148.862 11.1396 147.223 11.1396C145.958 11.1396 144.911 11.5421 144.081 12.3472C143.252 13.1522 142.837 14.2491 142.837 15.6377C142.837 17.0264 143.252 18.1233 144.081 18.9283C144.911 19.7333 145.958 20.1358 147.223 20.1358C148.883 20.1358 150.137 19.3912 150.988 17.9019L154.752 19.8943C154.151 21.1824 153.186 22.1887 151.859 22.9132C150.552 23.6377 149.017 24 147.254 24Z" fill="#181C2B"/>
<path d="M165.298 24C163.535 24 161.949 23.6478 160.538 22.9434C159.149 22.2189 158.06 21.2226 157.272 19.9547C156.484 18.6868 156.089 17.2478 156.089 15.6377C156.089 14.0277 156.484 12.5887 157.272 11.3208C158.06 10.0528 159.149 9.06667 160.538 8.36226C161.949 7.63774 163.535 7.27547 165.298 7.27547C167.061 7.27547 168.638 7.63774 170.027 8.36226C171.417 9.06667 172.506 10.0528 173.294 11.3208C174.082 12.5887 174.476 14.0277 174.476 15.6377C174.476 17.2478 174.082 18.6868 173.294 19.9547C172.506 21.2226 171.417 22.2189 170.027 22.9434C168.638 23.6478 167.061 24 165.298 24ZM165.298 20.1358C166.543 20.1358 167.559 19.7333 168.347 18.9283C169.156 18.1031 169.561 17.0063 169.561 15.6377C169.561 14.2692 169.156 13.1824 168.347 12.3774C167.559 11.5522 166.543 11.1396 165.298 11.1396C164.054 11.1396 163.027 11.5522 162.218 12.3774C161.409 13.1824 161.005 14.2692 161.005 15.6377C161.005 17.0063 161.409 18.1031 162.218 18.9283C163.027 19.7333 164.054 20.1358 165.298 20.1358Z" fill="#181C2B"/>
<path d="M199.156 7.27547C201.25 7.27547 202.91 7.87925 204.133 9.08679C205.378 10.2742 206 12.0654 206 14.4604V23.7585H201.147V15.1849C201.147 13.8969 200.867 12.9409 200.307 12.317C199.767 11.673 198.99 11.3509 197.973 11.3509C196.833 11.3509 195.93 11.7132 195.267 12.4377C194.603 13.1421 194.271 14.1987 194.271 15.6075V23.7585H189.418V15.1849C189.418 12.6289 188.36 11.3509 186.245 11.3509C185.125 11.3509 184.233 11.7132 183.569 12.4377C182.905 13.1421 182.573 14.1987 182.573 15.6075V23.7585H177.72V7.51698H182.356V9.38868C182.978 8.7044 183.735 8.18113 184.627 7.81887C185.539 7.4566 186.535 7.27547 187.613 7.27547C188.796 7.27547 189.864 7.50692 190.818 7.96981C191.772 8.41258 192.539 9.06667 193.12 9.93208C193.805 9.08679 194.665 8.43271 195.702 7.96981C196.76 7.50692 197.911 7.27547 199.156 7.27547Z" fill="#181C2B"/>
<rect y="15.1683" width="7.73002" height="19.9774" transform="rotate(-47.9895 0 15.1683)" fill="#CFDE00"/>
<rect x="28.1855" y="2.52405" width="7.73002" height="28.2601" transform="rotate(42.096 28.1855 2.52405)" fill="#0E8FE3"/>
</svg>
