<svg width="34" height="34" viewBox="0 0 34 34" fill="none" xmlns="http://www.w3.org/2000/svg">
<path d="M17 21.9585C20.1308 21.9585 22.6667 19.4227 22.6667 16.2918V8.50016C22.6667 5.36933 20.1308 2.8335 17 2.8335C13.8692 2.8335 11.3333 5.36933 11.3333 8.50016V16.2918C11.3333 19.4227 13.8692 21.9585 17 21.9585Z" stroke="#0E8FE3" stroke-width="2" stroke-linecap="round" stroke-linejoin="round"/>
<path d="M6.1625 13.6709V16.0792C6.1625 22.0576 11.0217 26.9167 17 26.9167C22.9783 26.9167 27.8375 22.0576 27.8375 16.0792V13.6709" stroke="#0E8FE3" stroke-width="2" stroke-linecap="round" stroke-linejoin="round"/>
<path d="M15.0308 9.10942C16.3058 8.64191 17.6942 8.64191 18.9692 9.10942" stroke="#0E8FE3" stroke-width="2" stroke-linecap="round" stroke-linejoin="round"/>
<path d="M15.8667 12.1126C16.6175 11.9143 17.3967 11.9143 18.1475 12.1126" stroke="#0E8FE3" stroke-width="2" stroke-linecap="round" stroke-linejoin="round"/>
<path d="M17 26.9165V31.1665" stroke="#0E8FE3" stroke-width="2" stroke-linecap="round" stroke-linejoin="round"/>
</svg>
