<svg width="34" height="34" viewBox="0 0 34 34" fill="none" xmlns="http://www.w3.org/2000/svg">
<path d="M21.8025 7.381L23.8 11.376C24.0691 11.9285 24.7916 12.4526 25.4008 12.566L29.0133 13.161C31.3225 13.5435 31.8608 15.2152 30.2033 16.8868L27.3841 19.706C26.9166 20.1735 26.6475 21.0943 26.8033 21.7602L27.6108 25.2452C28.2483 27.9935 26.775 29.0702 24.3525 27.6252L20.9666 25.6135C20.3575 25.2452 19.3375 25.2452 18.7283 25.6135L15.3425 27.6252C12.92 29.056 11.4467 27.9935 12.0842 25.2452L12.8917 21.7602C13.0475 21.1085 12.7783 20.1877 12.3108 19.706L9.49167 16.8868C7.83417 15.2293 8.3725 13.5576 10.6817 13.161L14.2942 12.566C14.9033 12.4668 15.6258 11.9285 15.895 11.376L17.8925 7.381C18.955 5.2135 20.7117 5.2135 21.8025 7.381Z" stroke="#0E8FE3" stroke-width="2" stroke-linecap="round" stroke-linejoin="round"/>
<path d="M11.3333 7.0835H2.83331" stroke="#0E8FE3" stroke-width="2" stroke-linecap="round" stroke-linejoin="round"/>
<path d="M7.08331 26.9165H2.83331" stroke="#0E8FE3" stroke-width="2" stroke-linecap="round" stroke-linejoin="round"/>
<path d="M4.24998 17H2.83331" stroke="#0E8FE3" stroke-width="2" stroke-linecap="round" stroke-linejoin="round"/>
</svg>
