<svg width="34" height="34" viewBox="0 0 34 34" fill="none" xmlns="http://www.w3.org/2000/svg">
<path d="M18.4167 15.7959H9.91666" stroke="#0E8FE3" stroke-width="2" stroke-linecap="round" stroke-linejoin="round"/>
<path d="M2.83334 15.7959V9.25094C2.83334 6.36094 5.17084 4.02344 8.06084 4.02344H16.0225C18.9125 4.02344 21.25 5.8226 21.25 8.7126" stroke="#0E8FE3" stroke-width="2" stroke-linecap="round" stroke-linejoin="round"/>
<path d="M24.7633 17.2832C24.055 17.9632 23.715 19.0115 23.9983 20.0882C24.3525 21.4057 25.6558 22.2416 27.0158 22.2416H28.3333V24.2957C28.3333 27.4266 25.7975 29.9624 22.6667 29.9624H8.5C5.36917 29.9624 2.83334 27.4266 2.83334 24.2957V14.3791C2.83334 11.2482 5.36917 8.7124 8.5 8.7124H22.6667C25.7833 8.7124 28.3333 11.2624 28.3333 14.3791V16.4332H26.8033C26.01 16.4332 25.2875 16.7449 24.7633 17.2832Z" stroke="#0E8FE3" stroke-width="2" stroke-linecap="round" stroke-linejoin="round"/>
<path d="M31.1667 17.8786V20.797C31.1667 21.5903 30.515 22.242 29.7075 22.242H26.9733C25.4433 22.242 24.0409 21.1228 23.9134 19.5928C23.8284 18.7003 24.1683 17.8645 24.7633 17.2836C25.2875 16.7453 26.01 16.4336 26.8033 16.4336H29.7075C30.515 16.4336 31.1667 17.0853 31.1667 17.8786Z" stroke="#0E8FE3" stroke-width="2" stroke-linecap="round" stroke-linejoin="round"/>
</svg>
