<svg width="34" height="34" viewBox="0 0 34 34" fill="none" xmlns="http://www.w3.org/2000/svg"><path d="M21.802 7.381l1.998 3.995c.27.553.992 1.077 1.6 1.19l3.613.595c2.31.383 2.848 2.054 1.19 3.726l-2.819 2.819c-.467.468-.736 1.388-.58 2.054l.807 3.485c.637 2.748-.836 3.825-3.259 2.38l-3.385-2.012c-.61-.368-1.63-.368-2.239 0l-3.386 2.012c-2.422 1.431-3.895.369-3.258-2.38l.808-3.485c.155-.652-.114-1.572-.581-2.054l-2.82-2.82c-1.657-1.657-1.118-3.328 1.19-3.725l3.613-.595c.61-.1 1.332-.638 1.601-1.19l1.997-3.995c1.063-2.168 2.82-2.168 3.91 0zm-10.469-.298h-8.5m4.25 19.833h-4.25M4.25 17H2.833" stroke="#0E8FE3" stroke-width="2" stroke-linecap="round" stroke-linejoin="round"/></svg>