<svg width="34" height="34" viewBox="0 0 34 34" fill="none" xmlns="http://www.w3.org/2000/svg"><path d="M18.417 15.796h-8.5m-7.084 0V9.25a5.224 5.224 0 015.228-5.228h7.962c2.89 0 5.227 1.8 5.227 4.69" stroke="#0E8FE3" stroke-width="2" stroke-linecap="round" stroke-linejoin="round"/><path d="M24.763 17.283a2.852 2.852 0 00-.765 2.805c.354 1.318 1.658 2.154 3.018 2.154h1.317v2.054a5.665 5.665 0 01-5.666 5.666H8.5a5.665 5.665 0 01-5.667-5.666v-9.917A5.665 5.665 0 018.5 8.712h14.167c3.116 0 5.666 2.55 5.666 5.667v2.054h-1.53c-.793 0-1.515.312-2.04.85z" stroke="#0E8FE3" stroke-width="2" stroke-linecap="round" stroke-linejoin="round"/><path d="M31.167 17.879v2.918c0 .793-.652 1.445-1.46 1.445h-2.734c-1.53 0-2.932-1.12-3.06-2.65a2.845 2.845 0 01.85-2.308 2.824 2.824 0 012.04-.85h2.904c.808 0 1.46.651 1.46 1.445z" stroke="#0E8FE3" stroke-width="2" stroke-linecap="round" stroke-linejoin="round"/></svg>